<svg xmlns:xlink="http://www.w3.org/1999/xlink" xmlns="http://www.w3.org/2000/svg" x="0" y="0" width="60" height="60" filtersec="colorsb2895767245" class="image-svg-svg primary" style="overflow: visible;" fill="#112656"><svg xmlns="http://www.w3.org/2000/svg" viewBox="0 0 79.86186218261719 80.45999908447266" fill="#112656"><title>资源 32</title><path d="M39.86 80.37v-1.94-13.28c0-.59-.2-.71-.74-.71H24.43a1.48 1.48 0 0 1-1.12-.44Q12 52.65.75 41.31c-1-1-1-1 0-2l20.1-20.22Q30.14 9.73 39.43.38a5.13 5.13 0 0 1 .46-.38c0 .39.06.66.06.94v14.44c0 .59.16.77.75.77h14.75a1.38 1.38 0 0 1 1.07.45q10.09 10.18 20.22 20.34c1 1 1.87 1.94 2.84 2.86.41.4.34.62 0 1Q74 46.36 68.43 52L53.72 66.78 40.48 80.09c-.14.13-.29.25-.44.37zm.06-64.08l-.38.35L16.6 39.71c-.57.58-.58.58 0 1.13l21.8 22c.49.49.9 1.05 1.38 1.63l24-24.14z" fill="#112656"></path><path d="M28.45 40.41a11.45 11.45 0 1 1 11.67 11.31 11.48 11.48 0 0 1-11.67-11.31z" fill="#FD9803"></path></svg></svg>